<svg width="800" height="218" viewBox="0 0 800 218" fill="none" xmlns="http://www.w3.org/2000/svg">
<rect width="800" height="218" fill="white"/>
<rect x="5" y="5" width="790" height="208" stroke="#1F1F1F" stroke-width="10"/>
<rect x="228" width="572" height="218" fill="#1F1F1F"/>
<path d="M303.055 139.248C297.803 139.248 293.071 138 288.859 135.504C284.647 132.956 281.345 129.498 278.953 125.13C276.561 120.762 275.365 115.952 275.365 110.7C275.365 105.656 276.561 101.028 278.953 96.816C281.397 92.604 284.777 89.276 289.093 86.832C293.409 84.388 298.323 83.166 303.835 83.166C306.851 83.166 309.763 83.504 312.571 84.18C315.431 84.856 318.005 85.818 320.293 87.066L315.145 99.156C311.609 97.7 308.307 96.972 305.239 96.972C301.235 96.972 298.141 98.272 295.957 100.872C293.773 103.42 292.681 106.774 292.681 110.934C292.681 113.638 293.175 116.082 294.163 118.266C295.151 120.398 296.529 122.088 298.297 123.336C300.117 124.584 302.171 125.208 304.459 125.208C305.707 125.208 306.747 125.104 307.579 124.896V112.338L321.073 110.778V135.192C315.197 137.896 309.191 139.248 303.055 139.248ZM355.563 139.248C349.947 139.248 344.955 138.052 340.587 135.66C336.271 133.268 332.891 129.966 330.447 125.754C328.055 121.49 326.859 116.654 326.859 111.246C326.859 105.786 328.055 100.924 330.447 96.66C332.891 92.396 336.271 89.094 340.587 86.754C344.955 84.362 349.947 83.166 355.563 83.166C361.179 83.166 366.145 84.362 370.461 86.754C374.829 89.094 378.209 92.396 380.601 96.66C383.045 100.872 384.267 105.734 384.267 111.246C384.267 116.654 383.045 121.49 380.601 125.754C378.209 129.966 374.829 133.268 370.461 135.66C366.093 138.052 361.127 139.248 355.563 139.248ZM355.563 125.052C358.839 125.052 361.517 123.778 363.597 121.23C365.729 118.682 366.795 115.328 366.795 111.168C366.795 108.412 366.301 105.968 365.313 103.836C364.377 101.652 363.051 99.962 361.335 98.766C359.619 97.518 357.669 96.894 355.485 96.894C353.353 96.894 351.429 97.518 349.713 98.766C347.997 99.962 346.671 101.652 345.735 103.836C344.799 105.968 344.331 108.412 344.331 111.168C344.331 115.328 345.371 118.682 347.451 121.23C349.531 123.778 352.235 125.052 355.563 125.052ZM417.796 139.248C412.18 139.248 407.188 138.052 402.82 135.66C398.504 133.268 395.124 129.966 392.68 125.754C390.288 121.49 389.092 116.654 389.092 111.246C389.092 105.786 390.288 100.924 392.68 96.66C395.124 92.396 398.504 89.094 402.82 86.754C407.188 84.362 412.18 83.166 417.796 83.166C423.412 83.166 428.378 84.362 432.694 86.754C437.062 89.094 440.442 92.396 442.834 96.66C445.278 100.872 446.5 105.734 446.5 111.246C446.5 116.654 445.278 121.49 442.834 125.754C440.442 129.966 437.062 133.268 432.694 135.66C428.326 138.052 423.36 139.248 417.796 139.248ZM417.796 125.052C421.072 125.052 423.75 123.778 425.83 121.23C427.962 118.682 429.028 115.328 429.028 111.168C429.028 108.412 428.534 105.968 427.546 103.836C426.61 101.652 425.284 99.962 423.568 98.766C421.852 97.518 419.902 96.894 417.718 96.894C415.586 96.894 413.662 97.518 411.946 98.766C410.23 99.962 408.904 101.652 407.968 103.836C407.032 105.968 406.564 108.412 406.564 111.168C406.564 115.328 407.604 118.682 409.684 121.23C411.764 123.778 414.468 125.052 417.796 125.052ZM453.976 84.336H477.298C482.914 84.336 487.88 85.454 492.196 87.69C496.564 89.926 499.944 93.046 502.336 97.05C504.78 101.054 506.002 105.63 506.002 110.778C506.002 116.186 504.806 120.944 502.414 125.052C500.074 129.16 496.72 132.358 492.352 134.646C488.036 136.882 483.018 138 477.298 138H453.976V84.336ZM476.518 123.96C480.418 123.96 483.382 122.738 485.41 120.294C487.49 117.798 488.53 114.574 488.53 110.622C488.53 106.878 487.516 103.914 485.488 101.73C483.512 99.494 480.522 98.376 476.518 98.376H471.214V123.96H476.518ZM528.091 84.336H543.769L565.141 113.274V84.336H579.103V138H563.503L541.975 110.076V138H528.091V84.336ZM589.258 84.336H626.932V96.192H608.212V105.942H625.294V115.77H608.212V126.144H626.932V138H589.258V84.336ZM632.214 84.336H649.764L654.834 118.578L660.06 93.462H678.234L683.538 118.578L688.608 84.336H706.158L693.99 138H675.816L669.186 109.14L662.556 138H644.382L632.214 84.336ZM729.498 139.248C722.166 139.248 715.978 137.896 710.934 135.192L714.834 123.102C720.19 125.026 724.974 125.988 729.186 125.988C731.474 125.988 733.138 125.728 734.178 125.208C735.27 124.636 735.816 123.804 735.816 122.712C735.816 121.984 735.53 121.36 734.958 120.84C734.386 120.268 733.242 119.644 731.526 118.968C729.81 118.292 727.236 117.46 723.804 116.472C719.592 115.224 716.316 113.196 713.976 110.388C711.636 107.528 710.466 104.252 710.466 100.56C710.466 94.84 712.338 90.524 716.082 87.612C719.878 84.648 724.974 83.166 731.37 83.166C734.698 83.166 737.974 83.53 741.198 84.258C744.422 84.934 747.282 85.948 749.778 87.3L745.566 99.078C742.654 98.09 740.106 97.388 737.922 96.972C735.79 96.504 733.71 96.27 731.682 96.27C728.25 96.27 726.534 97.206 726.534 99.078C726.534 100.014 727.08 100.82 728.172 101.496C729.316 102.12 731.63 102.926 735.114 103.914C740.574 105.37 744.708 107.606 747.516 110.622C750.324 113.586 751.728 117.148 751.728 121.308C751.728 127.08 749.856 131.526 746.112 134.646C742.368 137.714 736.83 139.248 729.498 139.248Z" fill="white"/>
<rect x="10" y="10" width="218" height="198" fill="#6773DD"/>
<circle cx="118" cy="105" r="53.5" stroke="white" stroke-width="33"/>
<path d="M87.4414 150.948C88.3989 150.366 89.6011 150.366 90.5587 150.948L120.554 169.187C123.146 170.763 122.029 174.75 118.995 174.75H59.0047C55.9714 174.75 54.8543 170.763 57.4461 169.187L87.4414 150.948Z" fill="white"/>
</svg>
