<svg width="1185" height="198" viewBox="0 0 1185 198" fill="none" xmlns="http://www.w3.org/2000/svg">
<rect width="1185" height="198" fill="white"/>
<path d="M333.531 81.3537C333.085 79.5343 332.381 77.9381 331.42 76.565C330.459 75.1576 329.257 73.9732 327.815 73.0121C326.408 72.0166 324.76 71.2785 322.872 70.7979C321.019 70.283 318.976 70.0256 316.745 70.0256C311.939 70.0256 307.837 71.1755 304.438 73.4755C301.074 75.7754 298.5 79.0881 296.715 83.4134C294.964 87.7386 294.089 92.9564 294.089 99.0668C294.089 105.246 294.93 110.532 296.612 114.926C298.294 119.32 300.8 122.684 304.129 125.018C307.459 127.353 311.596 128.52 316.539 128.52C320.898 128.52 324.52 127.885 327.404 126.615C330.321 125.345 332.501 123.542 333.943 121.208C335.385 118.874 336.106 116.128 336.106 112.969L341.049 113.484H316.951V93.0938H363.705V107.717C363.705 117.329 361.663 125.551 357.578 132.382C353.527 139.179 347.931 144.396 340.791 148.035C333.686 151.64 325.533 153.442 316.333 153.442C306.069 153.442 297.058 151.262 289.3 146.902C281.542 142.543 275.483 136.329 271.123 128.262C266.798 120.195 264.635 110.601 264.635 99.4787C264.635 90.7595 265.957 83.0357 268.6 76.3075C271.278 69.5793 274.985 63.8981 279.722 59.2638C284.46 54.5953 289.935 51.0767 296.148 48.7081C302.362 46.3052 309.021 45.1037 316.127 45.1037C322.375 45.1037 328.176 45.9962 333.531 47.7812C338.92 49.532 343.675 52.0379 347.794 55.299C351.948 58.5258 355.295 62.3533 357.835 66.7816C360.375 71.2099 361.92 76.0672 362.469 81.3537H333.531ZM479.213 99.2727C479.213 111.013 476.931 120.916 472.365 128.983C467.799 137.016 461.638 143.109 453.879 147.263C446.121 151.382 437.471 153.442 427.928 153.442C418.316 153.442 409.631 151.365 401.873 147.211C394.149 143.023 388.005 136.913 383.439 128.88C378.908 120.813 376.642 110.944 376.642 99.2727C376.642 87.5327 378.908 77.6463 383.439 69.6136C388.005 61.5466 394.149 55.4535 401.873 51.3342C409.631 47.1805 418.316 45.1037 427.928 45.1037C437.471 45.1037 446.121 47.1805 453.879 51.3342C461.638 55.4535 467.799 61.5466 472.365 69.6136C476.931 77.6463 479.213 87.5327 479.213 99.2727ZM449.76 99.2727C449.76 92.9564 448.919 87.6357 447.237 83.3104C445.589 78.9508 443.135 75.6553 439.874 73.424C436.647 71.1584 432.665 70.0256 427.928 70.0256C423.191 70.0256 419.191 71.1584 415.93 73.424C412.703 75.6553 410.249 78.9508 408.567 83.3104C406.919 87.6357 406.095 92.9564 406.095 99.2727C406.095 105.589 406.919 110.927 408.567 115.287C410.249 119.612 412.703 122.907 415.93 125.173C419.191 127.404 423.191 128.52 427.928 128.52C432.665 128.52 436.647 127.404 439.874 125.173C443.135 122.907 445.589 119.612 447.237 115.287C448.919 110.927 449.76 105.589 449.76 99.2727ZM594.619 99.2727C594.619 111.013 592.336 120.916 587.77 128.983C583.205 137.016 577.043 143.109 569.285 147.263C561.527 151.382 552.876 153.442 543.333 153.442C533.721 153.442 525.036 151.365 517.278 147.211C509.555 143.023 503.41 136.913 498.844 128.88C494.313 120.813 492.048 110.944 492.048 99.2727C492.048 87.5327 494.313 77.6463 498.844 69.6136C503.41 61.5466 509.555 55.4535 517.278 51.3342C525.036 47.1805 533.721 45.1037 543.333 45.1037C552.876 45.1037 561.527 47.1805 569.285 51.3342C577.043 55.4535 583.205 61.5466 587.77 69.6136C592.336 77.6463 594.619 87.5327 594.619 99.2727ZM565.165 99.2727C565.165 92.9564 564.324 87.6357 562.642 83.3104C560.995 78.9508 558.54 75.6553 555.279 73.424C552.052 71.1584 548.07 70.0256 543.333 70.0256C538.596 70.0256 534.597 71.1584 531.336 73.424C528.109 75.6553 525.654 78.9508 523.972 83.3104C522.325 87.6357 521.501 92.9564 521.501 99.2727C521.501 105.589 522.325 110.927 523.972 115.287C525.654 119.612 528.109 122.907 531.336 125.173C534.597 127.404 538.596 128.52 543.333 128.52C548.07 128.52 552.052 127.404 555.279 125.173C558.54 122.907 560.995 119.612 562.642 115.287C564.324 110.927 565.165 105.589 565.165 99.2727ZM648.44 152H607.865V46.5455H648.028C658.876 46.5455 668.247 48.6566 676.142 52.8789C684.072 57.0669 690.182 63.1085 694.473 71.0039C698.799 78.8649 700.961 88.2879 700.961 99.2727C700.961 110.258 698.816 119.698 694.525 127.593C690.234 135.454 684.158 141.496 676.297 145.718C668.436 149.906 659.15 152 648.44 152ZM636.494 127.696H647.41C652.628 127.696 657.073 126.855 660.746 125.173C664.454 123.491 667.269 120.59 669.191 116.471C671.148 112.352 672.126 106.619 672.126 99.2727C672.126 91.9266 671.131 86.1939 669.14 82.0746C667.183 77.9553 664.299 75.0546 660.489 73.3725C656.713 71.6905 652.079 70.8494 646.586 70.8494H636.494V127.696ZM834.337 46.5455V152H810.445L772.341 96.5952H771.724V152H743.094V46.5455H767.398L804.884 101.744H805.708V46.5455H834.337ZM847.879 152V46.5455H923.881V69.6136H876.509V87.7386H919.967V110.807H876.509V128.932H923.675V152H847.879ZM964.855 152L933.754 46.5455H965.679L980.097 111.425H980.921L998.016 46.5455H1023.14L1040.24 111.631H1041.06L1055.48 46.5455H1087.4L1056.3 152H1028.91L1010.99 93.0938H1010.17L992.249 152H964.855ZM1151.82 79.5C1151.55 76.0672 1150.26 73.3897 1147.96 71.4673C1145.69 69.545 1142.24 68.5838 1137.61 68.5838C1134.66 68.5838 1132.24 68.9442 1130.35 69.6651C1128.5 70.3517 1127.12 71.2957 1126.23 72.4972C1125.34 73.6986 1124.87 75.0717 1124.84 76.6165C1124.77 77.8866 1124.99 79.0366 1125.51 80.0664C1126.06 81.0619 1126.92 81.9716 1128.08 82.7955C1129.25 83.585 1130.74 84.3059 1132.56 84.9581C1134.38 85.6103 1136.54 86.1939 1139.05 86.7088L1147.7 88.5625C1153.54 89.7983 1158.53 91.4289 1162.69 93.4542C1166.84 95.4795 1170.24 97.8653 1172.88 100.612C1175.52 103.323 1177.46 106.379 1178.7 109.777C1179.97 113.175 1180.62 116.883 1180.66 120.899C1180.62 127.833 1178.89 133.703 1175.46 138.509C1172.02 143.315 1167.11 146.971 1160.73 149.477C1154.38 151.983 1146.74 153.236 1137.82 153.236C1128.65 153.236 1120.65 151.88 1113.82 149.168C1107.02 146.456 1101.74 142.285 1097.96 136.656C1094.22 130.991 1092.33 123.748 1092.3 114.926H1119.48C1119.66 118.153 1120.46 120.865 1121.9 123.062C1123.35 125.259 1125.37 126.924 1127.98 128.056C1130.62 129.189 1133.76 129.756 1137.4 129.756C1140.46 129.756 1143.02 129.378 1145.08 128.623C1147.13 127.868 1148.7 126.821 1149.76 125.482C1150.83 124.143 1151.37 122.616 1151.41 120.899C1151.37 119.286 1150.84 117.878 1149.81 116.677C1148.82 115.441 1147.17 114.343 1144.87 113.381C1142.57 112.386 1139.46 111.459 1135.55 110.601L1125.05 108.335C1115.71 106.31 1108.34 102.929 1102.96 98.1914C1097.6 93.4199 1094.94 86.9148 1094.97 78.6761C1094.94 71.9822 1096.72 66.1294 1100.33 61.1175C1103.97 56.0714 1109 52.1409 1115.42 49.326C1121.87 46.5111 1129.27 45.1037 1137.61 45.1037C1146.12 45.1037 1153.49 46.5283 1159.7 49.3775C1165.91 52.2267 1170.7 56.243 1174.07 61.4265C1177.46 66.5756 1179.18 72.6001 1179.21 79.5H1151.82Z" fill="#1F1F1F"/>
<rect width="218" height="198" fill="#6773DD"/>
<circle cx="108" cy="95" r="53.5" stroke="white" stroke-width="33"/>
<path d="M77.4414 140.948C78.3989 140.366 79.6011 140.366 80.5587 140.948L110.554 159.187C113.146 160.763 112.029 164.75 108.995 164.75H49.0047C45.9714 164.75 44.8543 160.763 47.4461 159.187L77.4414 140.948Z" fill="white"/>
</svg>
